<svg xmlns="http://www.w3.org/2000/svg" width="14.059" height="15" viewBox="0 0 14.059 15"><defs><style>.a{fill:#076df2;}</style></defs><path class="a" d="M81.683,353.469H72.739a.439.439,0,0,0,0,.879h8.943a.439.439,0,0,0,0-.879Zm0,0" transform="translate(-70.182 -343.113)"/><path class="a" d="M126.588,417.734h-5.648a.439.439,0,0,0,0,.879h5.648a.439.439,0,0,0,0-.879Zm0,0" transform="translate(-116.97 -405.496)"/><path class="a" d="M12.207.941h-.5v-.5a.439.439,0,1,0-.879,0v.5H8.881v-.5A.439.439,0,1,0,8,.439v.5H6.057v-.5a.439.439,0,1,0-.879,0v.5H3.232v-.5a.439.439,0,1,0-.879,0v.5h-.5A1.854,1.854,0,0,0,0,2.793V13.148A1.854,1.854,0,0,0,1.852,15H12.207a1.854,1.854,0,0,0,1.852-1.852V2.793A1.854,1.854,0,0,0,12.207.941Zm.973,12.207a.974.974,0,0,1-.973.973H1.852a.974.974,0,0,1-.973-.973V2.793a.974.974,0,0,1,.973-.973h.5v.5a.439.439,0,1,0,.879,0v-.5H5.178v.5a.439.439,0,1,0,.879,0v-.5H8v.5a.439.439,0,1,0,.879,0v-.5h1.945v.5a.439.439,0,1,0,.879,0v-.5h.5a.974.974,0,0,1,.973.973Zm0,0"/><path class="a" d="M178,115.936h1.177a.384.384,0,1,1,0,.769h-1.53a.439.439,0,0,0,0,.879h.5v.5a.439.439,0,0,0,.879,0v-.5h.149a1.263,1.263,0,0,0,0-2.526H178a.384.384,0,1,1,0-.768h1.53a.439.439,0,0,0,0-.879h-.5v-.5a.439.439,0,0,0-.879,0v.5H178a1.263,1.263,0,1,0,0,2.526Zm0,0" transform="translate(-171.557 -109.174)"/></svg>