<svg id="Layer_1" data-name="Layer 1" xmlns="http://www.w3.org/2000/svg" viewBox="0 0 32 32"><defs><style>.cls-1{fill:none;stroke:#076df2;stroke-linecap:round;stroke-linejoin:round;stroke-width:2px;}</style></defs><title>Support</title><path class="cls-1" d="M20.68,22.11A15.27,15.27,0,0,1,5.42,6.86,1.52,1.52,0,0,1,6.93,5.35h3a1.51,1.51,0,0,1,1.5,1.51,9,9,0,0,0,.46,2.86,1.52,1.52,0,0,1-.38,1.54l-1.26,1.68a10,10,0,0,0,4.34,4.33L16.35,16a1.44,1.44,0,0,1,1.47-.3,9.25,9.25,0,0,0,2.86.46,1.51,1.51,0,0,1,1.51,1.5v1.64A4.18,4.18,0,0,1,26,23.47c0,3.88-4.17,3.88-4.17,3.88H15.51"/></svg>