<svg xmlns="http://www.w3.org/2000/svg" xmlns:xlink="http://www.w3.org/1999/xlink" width="48pt" height="48pt" viewBox="0 0 48 48"><g id="surface24243688"><path style="stroke:none;fill-rule:nonzero;fill:#3498db;fill-opacity:1" d="M21.882812 6.136719 17.566406 5.160156C14.046875 4.367188 10.550781 6.574219 9.753906 10.097656L8.769531 14.445312C11.601562 9.949219 16.355469 6.789062 21.882812 6.136719zM6.136719 26.117188 5.160156 30.433594C4.367188 33.953125 6.574219 37.449219 10.097656 38.246094L14.445312 39.230469C9.949219 36.394531 6.789062 31.644531 6.136719 26.117188zM37.902344 9.753906 33.554688 8.769531C38.050781 11.601562 41.210938 16.355469 41.863281 21.878906L42.839844 17.566406C43.632812 14.046875 41.425781 10.550781 37.902344 9.753906zM26.117188 41.863281 30.433594 42.839844C33.953125 43.632812 37.449219 41.425781 38.246094 37.902344L39.230469 33.554688C36.398438 38.050781 31.644531 41.210938 26.117188 41.863281zm0 0"/><path style="stroke:none;fill-rule:nonzero;fill:#3498db;fill-opacity:1" d="M24 8C15.164062 8 8 15.164062 8 24 8 32.835938 15.164062 40 24 40 32.835938 40 40 32.835938 40 24 40 15.164062 32.835938 8 24 8zm-4 5C22.210938 13 24 14.789062 24 17 24 19.210938 22.210938 21 20 21 17.789062 21 16 19.210938 16 17 16 14.789062 17.789062 13 20 13zM17 32C14.789062 32 13 30.210938 13 28 13 25.789062 14.789062 24 17 24 19.210938 24 21 25.789062 21 28 21 30.210938 19.210938 32 17 32zm5-8C22 22.894531 22.894531 22 24 22 25.105469 22 26 22.894531 26 24 26 25.105469 25.105469 26 24 26 22.894531 26 22 25.105469 22 24zm6 11C25.789062 35 24 33.210938 24 31 24 28.789062 25.789062 27 28 27 30.210938 27 32 28.789062 32 31 32 33.210938 30.210938 35 28 35zm3-11C28.789062 24 27 22.210938 27 20 27 17.789062 28.789062 16 31 16 33.210938 16 35 17.789062 35 20 35 22.210938 33.210938 24 31 24zm0 0"/></g></svg>