<svg xmlns="http://www.w3.org/2000/svg" xmlns:xlink="http://www.w3.org/1999/xlink" width="52pt" height="52pt" viewBox="0 0 52 52"><g id="surface24249774"><path style="stroke:none;fill-rule:nonzero;fill:#3498db;fill-opacity:1" d="M26 0C11.640625.0.0 11.640625.0 26 0 39.035156 9.601562 49.796875 22.113281 51.679688V32.890625H15.679688V26.054688h6.433593V21.507812C22.113281 13.976562 25.78125 10.675781 32.039062 10.675781 35.035156 10.675781 36.621094 10.894531 37.371094 10.996094v5.96875H33.105469C30.449219 16.964844 29.519531 19.480469 29.519531 22.320312V26.058594H37.304688L36.25 32.890625H29.519531v18.84375C42.210938 50.011719 52 39.160156 52 26 52 11.640625 40.359375.0 26 0zm0 0"/></g></svg>