<svg xmlns="http://www.w3.org/2000/svg" xmlns:xlink="http://www.w3.org/1999/xlink" width="48pt" height="48pt" viewBox="0 0 48 48"><g id="surface24250081"><path style="stroke:none;fill-rule:nonzero;fill:#3498db;fill-opacity:1" d="M4.375.0C1.976562.0.0 1.976562.0 4.375v39.25C0 46.023438 1.976562 48 4.375 48h39.25C46.023438 48 48 46.023438 48 43.625V4.375C48 1.976562 46.023438.0 43.625.0zm14 7.8125h8.8125L24.375 9.1875H22c1 1 3 2.609375 3 5.8125C25 18.203125 23.171875 19.601562 21.375 21 20.773438 21.601562 20.1875 22.203125 20.1875 23 20.1875 24 20.773438 24.414062 21.375 24.8125L23 26C24.796875 27.601562 26.625 29 26.625 32c0 4-4.046875 8-11.25 8-6.203125.0-9.1875-3-9.1875-6C6.1875 32.398438 7.023438 30.414062 9.625 28.8125 12.226562 27.210938 15.8125 27.015625 17.8125 26.8125 17.210938 26.015625 16.625 25.203125 16.625 24c0-.796875.171875-1.2265620000000013.375-1.625H15.625C10.625 22.578125 8 19.210938 8 15.8125 8 13.8125 9.015625 11.585938 10.8125 10.1875 13.210938 8.1875 16.171875 7.8125 18.375 7.8125zm-2.5625 1.375c-1.203125.0-2.3984380000000005.640625-3 1.4375-.796875 1-1 2.1875-1 3.1875.0 2.796875 1.578125 7.5625 5.375 7.5625 1 0 2.203125-.5859379999999987 3-1.1875 1-1 1-2.3984379999999987 1-3 0-3.203125-1.7734379999999987-8-5.375-8zM34 16h4v6h6v4H38v6H34V26H28V22h6zM17.8125 28.1875C17.414062 28.1875 14.984375 28.210938 13.1875 28.8125 12.1875 29.210938 9.625 30.1875 9.625 33.1875c0 3 2.9609380000000005 5.1875 7.5625 5.1875C21.390625 38.375 23.625 36.414062 23.625 33.8125c0-2.203125-1.421875-3.421875-4.625-5.625zm0 0"/></g></svg>