<svg xmlns="http://www.w3.org/2000/svg" xmlns:xlink="http://www.w3.org/1999/xlink" width="50pt" height="50pt" viewBox="0 0 50 50"><g id="surface24883677"><path style="stroke:none;fill-rule:nonzero;fill:#3498db;fill-opacity:1" d="M16 3C8.828125 3 3 8.828125 3 16V34c0 7.171875 5.828125 13 13 13H34c7.171875.0 13-5.828125 13-13V16C47 8.828125 41.171875 3 34 3zm21 8C38.101562 11 39 11.898438 39 13 39 14.101562 38.101562 15 37 15 35.898438 15 35 14.101562 35 13 35 11.898438 35.898438 11 37 11zM25 14C31.070312 14 36 18.929688 36 25 36 31.070312 31.070312 36 25 36 18.929688 36 14 31.070312 14 25 14 18.929688 18.929688 14 25 14zm0 2C20.039062 16 16 20.039062 16 25 16 29.960938 20.039062 34 25 34 29.960938 34 34 29.960938 34 25 34 20.039062 29.960938 16 25 16zm0 0"/></g></svg>