<svg id="Layer_1" data-name="Layer 1" xmlns="http://www.w3.org/2000/svg" viewBox="0 0 32 32"><defs><style>.cls-1{fill:#66f6e8;}.cls-1,.cls-4{stroke:#073673;stroke-linecap:round;stroke-linejoin:round;}.cls-2,.cls-4{fill:#fff;}.cls-3{fill:#073673;}</style></defs><title>Instagram</title><path class="cls-1" d="M2,21.66A8.35,8.35,0,0,0,10.34,30H21.66A8.35,8.35,0,0,0,30,21.66V10.34A8.35,8.35,0,0,0,21.66,2H10.34A8.35,8.35,0,0,0,2,10.34"/><path class="cls-2" d="M10.88,21.12A7.24,7.24,0,0,0,21.12,10.88,7.1,7.1,0,0,0,17.63,9a7.24,7.24,0,0,0-6.75,12.17Z"/><path class="cls-3" d="M16,8.76a7.23,7.23,0,0,0-5.12,2.12l-.18.19a7.25,7.25,0,0,0-1.85,3.77,7.37,7.37,0,0,0,.2,3.2,7.24,7.24,0,0,0,12.07,3.08h.22v0h0v0h0l0,0h0v0h0a7.26,7.26,0,0,0,.81-8.51.52.52,0,0,0-.43-.24.48.48,0,0,0-.26.07.5.5,0,0,0-.17.68,6.23,6.23,0,0,1-1,7.6A6.24,6.24,0,1,1,16,9.76a.5.5,0,0,0,.5-.5.5.5,0,0,0-.5-.5Zm1.38.14a.5.5,0,0,0-.49.4.51.51,0,0,0,.39.59l.13,0a4.65,4.65,0,0,1,.7.21.51.51,0,0,0,.17,0,.51.51,0,0,0,.17-1l-.33-.1h-.56l-.09,0Z"/><circle class="cls-4" cx="23.26" cy="8.81" r="1.74"/></svg>