<svg xmlns="http://www.w3.org/2000/svg" xmlns:xlink="http://www.w3.org/1999/xlink" width="48pt" height="48pt" viewBox="0 0 48 48"><g id="surface24899807"><path style="stroke:none;fill-rule:nonzero;fill:#3498db;fill-opacity:1" d="M43.601562.0H4.398438C2 0 0 2 0 4.398438V43.601562C0 46 2 48 4.398438 48H43.601562C46 48 48 46 48 43.601562V4.398438C48 2 46 0 43.601562.0zM14 40H6V18h8zM10 15.398438C7.601562 15.398438 6 13.796875 6 11.796875 6 9.601562 7.601562 8 10 8 12.398438 8 14 9.601562 14 11.601562 14 13.796875 12.398438 15.398438 10 15.398438zM42 40H34V28c0-3.203125-2.203125-4-2.796875-4C30.601562 24 28 24.398438 28 28 28 28.398438 28 40 28 40H20V18h8v3.203125C29.203125 19.398438 31.203125 18 35 18c3.796875.0 7 3 7 10zm0 0"/></g></svg>