<svg xmlns="http://www.w3.org/2000/svg" xmlns:xlink="http://www.w3.org/1999/xlink" width="32pt" height="32pt" viewBox="0 0 32 32"><g id="surface24884159"><path style="stroke:none;fill-rule:nonzero;fill:#3498db;fill-opacity:1" d="M26.070312 3.996094C25.734375 4.011719 25.417969 4.109375 25.136719 4.21875H25.132812C24.847656 4.332031 23.492188 4.902344 21.433594 5.765625 19.375 6.632812 16.703125 7.757812 14.050781 8.875 8.753906 11.105469 3.546875 13.300781 3.546875 13.300781L3.609375 13.277344c0 0-.359375.11718700000000126-.734375.375C2.683594 13.777344 2.472656 13.949219 2.289062 14.21875 2.105469 14.488281 1.957031 14.902344 2.011719 15.328125 2.101562 16.050781 2.570312 16.484375 2.90625 16.722656 3.246094 16.964844 3.570312 17.078125 3.570312 17.078125H3.578125L8.460938 18.722656C8.679688 19.425781 9.949219 23.597656 10.253906 24.558594 10.433594 25.132812 10.609375 25.492188 10.828125 25.765625 10.933594 25.90625 11.058594 26.023438 11.207031 26.117188 11.265625 26.152344 11.328125 26.179688 11.390625 26.203125 11.410156 26.214844 11.429688 26.21875 11.453125 26.222656L11.402344 26.210938C11.417969 26.214844 11.429688 26.226562 11.441406 26.230469 11.480469 26.242188 11.507812 26.246094 11.558594 26.253906 12.332031 26.488281 12.953125 26.007812 12.953125 26.007812L12.988281 25.980469 15.871094 23.355469 20.703125 27.0625l.109375.046875C21.820312 27.550781 22.839844 27.304688 23.378906 26.871094 23.921875 26.433594 24.132812 25.875 24.132812 25.875L24.167969 25.785156 27.902344 6.65625C28.007812 6.183594 28.035156 5.742188 27.917969 5.3125 27.800781 4.882812 27.5 4.480469 27.136719 4.265625 26.769531 4.046875 26.40625 3.980469 26.070312 3.996094zM25.96875 6.046875C25.964844 6.109375 25.976562 6.101562 25.949219 6.222656V6.234375L22.25 25.164062C22.234375 25.191406 22.207031 25.25 22.132812 25.308594 22.054688 25.371094 21.992188 25.410156 21.667969 25.28125L15.757812 20.75 12.1875 24.003906 12.9375 19.214844c0 0 9.257812000000001-8.628905999999999 9.65625-9C22.992188 9.84375 22.859375 9.765625 22.859375 9.765625 22.886719 9.3125 22.257812 9.632812 22.257812 9.632812L10.082031 17.175781 10.078125 17.15625 4.242188 15.191406V15.1875C4.238281 15.1875 4.230469 15.183594 4.226562 15.183594 4.230469 15.183594 4.257812 15.171875 4.257812 15.171875l.03125-.015625L4.320312 15.144531C4.320312 15.144531 9.53125 12.949219 14.828125 10.71875 17.480469 9.601562 20.152344 8.476562 22.207031 7.609375 24.261719 6.746094 25.78125 6.113281 25.867188 6.078125 25.949219 6.046875 25.910156 6.046875 25.96875 6.046875zm0 0"/></g></svg>