<svg xmlns="http://www.w3.org/2000/svg" xmlns:xlink="http://www.w3.org/1999/xlink" width="50pt" height="50pt" viewBox="0 0 50 50"><g id="surface24888928"><path style="stroke:none;fill-rule:nonzero;fill:#3498db;fill-opacity:1" d="M50.0625 10.4375C48.214844 11.257812 46.234375 11.808594 44.152344 12.058594 46.277344 10.785156 47.910156 8.769531 48.675781 6.371094 46.691406 7.546875 44.484375 8.402344 42.144531 8.863281 40.269531 6.863281 37.597656 5.617188 34.640625 5.617188 28.960938 5.617188 24.355469 10.21875 24.355469 15.898438 24.355469 16.703125 24.449219 17.488281 24.625 18.242188 16.078125 17.8125 8.503906 13.71875 3.429688 7.496094 2.542969 9.019531 2.039062 10.785156 2.039062 12.667969 2.039062 16.234375 3.851562 19.382812 6.613281 21.230469 4.925781 21.175781 3.339844 20.710938 1.953125 19.941406 1.953125 19.984375 1.953125 20.027344 1.953125 20.070312 1.953125 25.054688 5.5 29.207031 10.199219 30.15625 9.339844 30.390625 8.429688 30.515625 7.492188 30.515625 6.828125 30.515625 6.183594 30.453125 5.554688 30.328125 6.867188 34.410156 10.664062 37.390625 15.160156 37.472656 11.644531 40.230469 7.210938 41.871094 2.390625 41.871094 1.558594 41.871094.742188 41.824219-.0585938 41.726562 4.488281 44.648438 9.894531 46.347656 15.703125 46.347656 34.617188 46.347656 44.960938 30.679688 44.960938 17.09375 44.960938 16.648438 44.949219 16.199219 44.933594 15.761719 46.941406 14.3125 48.683594 12.5 50.0625 10.4375zm0 0"/></g></svg>