<svg id="Layer_1" data-name="Layer 1" xmlns="http://www.w3.org/2000/svg" viewBox="0 0 32 32"><defs><style>.cls-1{fill:#66f6e8;}.cls-2{fill:none;}.cls-2,.cls-3{stroke:#073673;stroke-linecap:round;stroke-linejoin:round;}.cls-3{fill:#e8f1fd;}</style></defs><title>Whatsapp</title><path class="cls-1" d="M17,2.8A13,13,0,0,0,5.73,22.32L4,28.84l6.52-1.75A13,13,0,1,0,17,2.8Z"/><path class="cls-2" d="M22.57,4.05A13,13,0,0,0,5.73,22.32L4,28.84l6.52-1.75A13,13,0,0,0,28.77,10.25"/><path class="cls-3" d="M13,14.92a11.76,11.76,0,0,0,4.93,4.92l1.65-1.62a.58.58,0,0,1,.74-.15,7.59,7.59,0,0,0,2.71.44.72.72,0,0,1,.74.67V21.8a.7.7,0,0,1-.66.74H23A12.69,12.69,0,0,1,10.27,9.85h0A.72.72,0,0,1,11,9.1h2.69a.71.71,0,0,1,.74.67v.08a8.27,8.27,0,0,0,.45,2.7.88.88,0,0,1-.15.75"/></svg>